<svg xmlns="http://www.w3.org/2000/svg" xmlns:xlink="http://www.w3.org/1999/xlink" xmlns:lucid="lucid" width="1260" height="1060"><g transform="translate(0 -60)" lucid:page-tab-id="L.BeP2~polPs"><path d="M0 0h1760v1360H0z" fill="#fff"/><path d="M20 105c0-2.76 2.24-5 5-5h190c2.76 0 5 2.24 5 5v414c0 2.76-2.24 5-5 5H25c-2.76 0-5-2.24-5-5z" fill="#fff"/><path d="M20 105c0-2.76 2.24-5 5-5h190c2.76 0 5 2.24 5 5v414c0 2.76-2.24 5-5 5H25c-2.76 0-5-2.24-5-5zM20 140h200" stroke="#000" fill="none"/><use xlink:href="#a" transform="matrix(1,0,0,1,30,100) translate(71.05 23.6)"/><use xlink:href="#b" transform="matrix(1,0,0,1,25,142.5) translate(87.5 17.1)"/><use xlink:href="#c" transform="matrix(1,0,0,1,25,174.5) translate(67.025 17.1)"/><use xlink:href="#d" transform="matrix(1,0,0,1,25,206.5) translate(58.075 17.1)"/><use xlink:href="#e" transform="matrix(1,0,0,1,25,238.5) translate(58.55 17.1)"/><use xlink:href="#f" transform="matrix(1,0,0,1,25,270.5) translate(80 17.1)"/><use xlink:href="#g" transform="matrix(1,0,0,1,25,302.5) translate(70 17.1)"/><use xlink:href="#h" transform="matrix(1,0,0,1,25,334.5) translate(68.025 17.1)"/><use xlink:href="#i" transform="matrix(1,0,0,1,25,366.5) translate(65.525 17.1)"/><use xlink:href="#j" transform="matrix(1,0,0,1,25,398.5) translate(39.62499999999999 17.1)"/><use xlink:href="#k" transform="matrix(1,0,0,1,25,430.5) translate(73.57499999999999 17.1)"/><use xlink:href="#l" transform="matrix(1,0,0,1,25,462.5) translate(56.55 17.1)"/><use xlink:href="#m" transform="matrix(1,0,0,1,25,494.5) translate(47.1 17.1)"/><path d="M540 85c0-2.76 2.24-5 5-5h190c2.76 0 5 2.24 5 5v190c0 2.76-2.24 5-5 5H545c-2.76 0-5-2.24-5-5z" fill="#fff"/><path d="M540 85c0-2.76 2.24-5 5-5h190c2.76 0 5 2.24 5 5v190c0 2.76-2.24 5-5 5H545c-2.76 0-5-2.24-5-5zM540 120h200" stroke="#000" fill="none"/><use xlink:href="#n" transform="matrix(1,0,0,1,550,80) translate(42.62499999999999 23.6)"/><use xlink:href="#o" transform="matrix(1,0,0,1,545,122.5) translate(88.025 17.1)"/><use xlink:href="#p" transform="matrix(1,0,0,1,545,154.5) translate(42.525 17.1)"/><use xlink:href="#q" transform="matrix(1,0,0,1,545,186.5) translate(45.525 14.4)"/><use xlink:href="#r" transform="matrix(1,0,0,1,545,218.5) translate(48.025 17.1)"/><use xlink:href="#s" transform="matrix(1,0,0,1,545,250.5) translate(76.075 17.1)"/><path d="M480 385c0-2.76 2.24-5 5-5h190c2.76 0 5 2.24 5 5v190c0 2.76-2.24 5-5 5H485c-2.76 0-5-2.24-5-5z" fill="#fff"/><path d="M480 385c0-2.76 2.24-5 5-5h190c2.76 0 5 2.24 5 5v190c0 2.76-2.24 5-5 5H485c-2.76 0-5-2.24-5-5zM480 420h200" stroke="#000" fill="none"/><use xlink:href="#t" transform="matrix(1,0,0,1,490,380) translate(39.55 23.6)"/><use xlink:href="#u" transform="matrix(1,0,0,1,485,422.5) translate(77.5 17.1)"/><use xlink:href="#v" transform="matrix(1,0,0,1,485,454.5) translate(55.074999999999996 17.1)"/><use xlink:href="#w" transform="matrix(1,0,0,1,485,486.5) translate(49.025 17.1)"/><use xlink:href="#x" transform="matrix(1,0,0,1,485,518.5) translate(66.2 17.1)"/><use xlink:href="#y" transform="matrix(1,0,0,1,485,550.5) translate(65.55 17.1)"/><path d="M1040 265c0-2.76 2.24-5 5-5h190c2.76 0 5 2.24 5 5v350c0 2.76-2.24 5-5 5h-190c-2.76 0-5-2.24-5-5z" fill="#fff"/><path d="M1040 265c0-2.76 2.24-5 5-5h190c2.76 0 5 2.24 5 5v350c0 2.76-2.24 5-5 5h-190c-2.76 0-5-2.24-5-5zM1040 300h200" stroke="#000" fill="none"/><use xlink:href="#z" transform="matrix(1,0,0,1,1050,260) translate(71.675 23.6)"/><use xlink:href="#b" transform="matrix(1,0,0,1,1045,302.5) translate(87.5 17.1)"/><use xlink:href="#c" transform="matrix(1,0,0,1,1045,334.5) translate(67.025 17.1)"/><use xlink:href="#d" transform="matrix(1,0,0,1,1045,366.5) translate(58.075 17.1)"/><use xlink:href="#e" transform="matrix(1,0,0,1,1045,398.5) translate(58.55 17.1)"/><use xlink:href="#h" transform="matrix(1,0,0,1,1045,430.5) translate(68.025 17.1)"/><use xlink:href="#j" transform="matrix(1,0,0,1,1045,462.5) translate(39.62499999999999 17.1)"/><use xlink:href="#k" transform="matrix(1,0,0,1,1045,494.5) translate(73.57499999999999 17.1)"/><use xlink:href="#l" transform="matrix(1,0,0,1,1045,526.5) translate(56.55 17.1)"/><use xlink:href="#g" transform="matrix(1,0,0,1,1045,558.5) translate(70 17.1)"/><use xlink:href="#A" transform="matrix(1,0,0,1,1045,590.5) translate(51.574999999999996 17.1)"/><path d="M80 905c0-2.76 2.24-5 5-5h190c2.76 0 5 2.24 5 5v190c0 2.76-2.24 5-5 5H85c-2.76 0-5-2.24-5-5z" fill="#fff"/><path d="M80 905c0-2.76 2.24-5 5-5h190c2.76 0 5 2.24 5 5v190c0 2.76-2.24 5-5 5H85c-2.76 0-5-2.24-5-5zM80 940h200" stroke="#000" fill="none"/><use xlink:href="#B" transform="matrix(1,0,0,1,90,900) translate(55 23.6)"/><use xlink:href="#o" transform="matrix(1,0,0,1,85,942.5) translate(88.025 17.1)"/><use xlink:href="#C" transform="matrix(1,0,0,1,85,974.5) translate(75.55 17.1)"/><use xlink:href="#D" transform="matrix(1,0,0,1,85,1006.5) translate(72.525 17.1)"/><use xlink:href="#E" transform="matrix(1,0,0,1,85,1038.5) translate(78.05 17.1)"/><use xlink:href="#F" transform="matrix(1,0,0,1,85,1070.5) translate(51.55 17.1)"/><path d="M880 789c0-2.76 2.24-5 5-5h190c2.76 0 5 2.24 5 5v158c0 2.76-2.24 5-5 5H885c-2.76 0-5-2.24-5-5z" fill="#fff"/><path d="M880 789c0-2.76 2.24-5 5-5h190c2.76 0 5 2.24 5 5v158c0 2.76-2.24 5-5 5H885c-2.76 0-5-2.24-5-5zM880 824h200" stroke="#000" fill="none"/><use xlink:href="#G" transform="matrix(1,0,0,1,890,784) translate(48.525 23.6)"/><use xlink:href="#o" transform="matrix(1,0,0,1,885,826.5) translate(88.025 17.1)"/><use xlink:href="#H" transform="matrix(1,0,0,1,885,858.5) translate(65.025 17.1)"/><use xlink:href="#I" transform="matrix(1,0,0,1,885,890.5) translate(37.12499999999999 17.1)"/><use xlink:href="#J" transform="matrix(1,0,0,1,885,890.5) translate(128.925 17.1)"/><use xlink:href="#C" transform="matrix(1,0,0,1,885,922.5) translate(75.55 17.1)"/><path d="M459.5 500H392c-6.63 0-12 5.37-12 12v432c0 6.63-5.37 12-12 12h-68.1" stroke="#000" fill="none"/><path d="M459.5 490v20M479.5 500h-20M280.72 946l20 10-20 10M280.72 956h20" stroke="#000" fill="#fff"/><path d="M700.5 532H848c6.63 0 12-5.37 12-12V328c0-6.63 5.37-12 12-12h148.1" stroke="#000" fill="none"/><path d="M700.5 542v-20M680.5 532h20M1039.28 326l-20-10 20-10M1039.28 316h-20" stroke="#000" fill="#fff"/><path d="M519.5 136H392c-6.63 0-12 5.37-12 12v252c0 6.63-5.37 12-12 12H239.9" stroke="#000" fill="none"/><path d="M519.5 126v20M539.5 136h-20M220.72 402l20 10-20 10M220.72 412h20" stroke="#000" fill="#fff"/><path d="M760.5 136H878c6.63 0 12 5.37 12 12v316c0 6.63 5.37 12 12 12h118.1" stroke="#000" fill="none"/><path d="M760.5 146v-20M740.5 136h20M1039.28 486l-20-10 20-10M1039.28 476h-20" stroke="#000" fill="#fff"/><path d="M240.5 156H338c6.63 0 12 5.37 12 12v384c0 6.63 5.37 12 12 12h98.1" stroke="#000" fill="none"/><path d="M240.5 166v-20M220.5 156h20M479.28 574l-20-10 20-10M479.28 564h-20" stroke="#000" fill="#fff"/><path d="M859.5 904H822c-6.63 0-12-5.37-12-12V148c0-6.63-5.37-12-12-12h-38.1" stroke="#000" fill="none"/><path d="M859.5 894v20M879.5 904h-20M740.72 126l20 10-20 10M740.72 136h20" stroke="#000" fill="#fff"/><defs><path d="M232-93c-1 65-40 97-104 97C67 4 28-28 28-90v-158h33c8 89-33 224 67 224 102 0 64-133 71-224h33v155" id="K"/><path d="M135-143c-3-34-86-38-87 0 15 53 115 12 119 90S17 21 10-45l28-5c4 36 97 45 98 0-10-56-113-15-118-90-4-57 82-63 122-42 12 7 21 19 24 35" id="L"/><path d="M100-194c63 0 86 42 84 106H49c0 40 14 67 53 68 26 1 43-12 49-29l28 8c-11 28-37 45-77 45C44 4 14-33 15-96c1-61 26-98 85-98zm52 81c6-60-76-77-97-28-3 7-6 17-6 28h103" id="M"/><path d="M114-163C36-179 61-72 57 0H25l-1-190h30c1 12-1 29 2 39 6-27 23-49 58-41v29" id="N"/><g id="a"><use transform="matrix(0.05,0,0,0.05,0,0)" xlink:href="#K"/><use transform="matrix(0.05,0,0,0.05,12.950000000000001,0)" xlink:href="#L"/><use transform="matrix(0.05,0,0,0.05,21.950000000000003,0)" xlink:href="#M"/><use transform="matrix(0.05,0,0,0.05,31.950000000000003,0)" xlink:href="#N"/></g><path d="M33 0v-248h34V0H33" id="O"/><path d="M85-194c31 0 48 13 60 33l-1-100h32l1 261h-30c-2-10 0-23-3-31C134-8 116 4 85 4 32 4 16-35 15-94c0-66 23-100 70-100zm9 24c-40 0-46 34-46 75 0 40 6 74 45 74 42 0 51-32 51-76 0-42-9-74-50-73" id="P"/><g id="b"><use transform="matrix(0.05,0,0,0.05,0,0)" xlink:href="#O"/><use transform="matrix(0.05,0,0,0.05,5,0)" xlink:href="#P"/></g><path d="M177-190C167-65 218 103 67 71c-23-6-38-20-44-43l32-5c15 47 100 32 89-28v-30C133-14 115 1 83 1 29 1 15-40 15-95c0-56 16-97 71-98 29-1 48 16 59 35 1-10 0-23 2-32h30zM94-22c36 0 50-32 50-73 0-42-14-75-50-75-39 0-46 34-46 75s6 73 46 73" id="Q"/><path d="M117-194c89-4 53 116 60 194h-32v-121c0-31-8-49-39-48C34-167 62-67 57 0H25l-1-190h30c1 10-1 24 2 32 11-22 29-35 61-36" id="R"/><g id="c"><use transform="matrix(0.05,0,0,0.05,0,0)" xlink:href="#Q"/><use transform="matrix(0.05,0,0,0.05,10,0)" xlink:href="#M"/><use transform="matrix(0.05,0,0,0.05,20,0)" xlink:href="#R"/><use transform="matrix(0.05,0,0,0.05,30,0)" xlink:href="#P"/><use transform="matrix(0.05,0,0,0.05,40,0)" xlink:href="#M"/><use transform="matrix(0.05,0,0,0.05,50,0)" xlink:href="#N"/></g><path d="M101-234c-31-9-42 10-38 44h38v23H63V0H32v-167H5v-23h27c-7-52 17-82 69-68v24" id="S"/><path d="M24-231v-30h32v30H24zM24 0v-190h32V0H24" id="T"/><path d="M59-47c-2 24 18 29 38 22v24C64 9 27 4 27-40v-127H5v-23h24l9-43h21v43h35v23H59v120" id="U"/><path d="M141-36C126-15 110 5 73 4 37 3 15-17 15-53c-1-64 63-63 125-63 3-35-9-54-41-54-24 1-41 7-42 31l-33-3c5-37 33-52 76-52 45 0 72 20 72 64v82c-1 20 7 32 28 27v20c-31 9-61-2-59-35zM48-53c0 20 12 33 32 33 41-3 63-29 60-74-43 2-92-5-92 41" id="V"/><path d="M210-169c-67 3-38 105-44 169h-31v-121c0-29-5-50-35-48C34-165 62-65 56 0H25l-1-190h30c1 10-1 24 2 32 10-44 99-50 107 0 11-21 27-35 58-36 85-2 47 119 55 194h-31v-121c0-29-5-49-35-48" id="W"/><g id="d"><use transform="matrix(0.05,0,0,0.05,0,0)" xlink:href="#S"/><use transform="matrix(0.05,0,0,0.05,5,0)" xlink:href="#T"/><use transform="matrix(0.05,0,0,0.05,8.95,0)" xlink:href="#N"/><use transform="matrix(0.05,0,0,0.05,14.899999999999999,0)" xlink:href="#L"/><use transform="matrix(0.05,0,0,0.05,23.9,0)" xlink:href="#U"/><use transform="matrix(0.05,0,0,0.05,28.899999999999995,0)" xlink:href="#R"/><use transform="matrix(0.05,0,0,0.05,38.9,0)" xlink:href="#V"/><use transform="matrix(0.05,0,0,0.05,48.9,0)" xlink:href="#W"/><use transform="matrix(0.05,0,0,0.05,63.85,0)" xlink:href="#M"/></g><path d="M24 0v-261h32V0H24" id="X"/><g id="e"><use transform="matrix(0.05,0,0,0.05,0,0)" xlink:href="#X"/><use transform="matrix(0.05,0,0,0.05,3.95,0)" xlink:href="#V"/><use transform="matrix(0.05,0,0,0.05,13.949999999999998,0)" xlink:href="#L"/><use transform="matrix(0.05,0,0,0.05,22.95,0)" xlink:href="#U"/><use transform="matrix(0.05,0,0,0.05,27.950000000000003,0)" xlink:href="#R"/><use transform="matrix(0.05,0,0,0.05,37.95,0)" xlink:href="#V"/><use transform="matrix(0.05,0,0,0.05,47.95,0)" xlink:href="#W"/><use transform="matrix(0.05,0,0,0.05,62.900000000000006,0)" xlink:href="#M"/></g><g id="f"><use transform="matrix(0.05,0,0,0.05,0,0)" xlink:href="#V"/><use transform="matrix(0.05,0,0,0.05,10,0)" xlink:href="#Q"/><use transform="matrix(0.05,0,0,0.05,20,0)" xlink:href="#M"/></g><path d="M115-194c55 1 70 41 70 98S169 2 115 4C84 4 66-9 55-30l1 105H24l-1-265h31l2 30c10-21 28-34 59-34zm-8 174c40 0 45-34 45-75s-6-73-45-74c-42 0-51 32-51 76 0 43 10 73 51 73" id="Y"/><path d="M106-169C34-169 62-67 57 0H25v-261h32l-1 103c12-21 28-36 61-36 89 0 53 116 60 194h-32v-121c2-32-8-49-39-48" id="Z"/><path d="M100-194c62-1 85 37 85 99 1 63-27 99-86 99S16-35 15-95c0-66 28-99 85-99zM99-20c44 1 53-31 53-75 0-43-8-75-51-75s-53 32-53 75 10 74 51 75" id="aa"/><g id="g"><use transform="matrix(0.05,0,0,0.05,0,0)" xlink:href="#Y"/><use transform="matrix(0.05,0,0,0.05,10,0)" xlink:href="#Z"/><use transform="matrix(0.05,0,0,0.05,20,0)" xlink:href="#aa"/><use transform="matrix(0.05,0,0,0.05,30,0)" xlink:href="#R"/><use transform="matrix(0.05,0,0,0.05,40,0)" xlink:href="#M"/></g><g id="h"><use transform="matrix(0.05,0,0,0.05,0,0)" xlink:href="#V"/><use transform="matrix(0.05,0,0,0.05,10,0)" xlink:href="#P"/><use transform="matrix(0.05,0,0,0.05,20,0)" xlink:href="#N"/><use transform="matrix(0.05,0,0,0.05,25.950000000000003,0)" xlink:href="#M"/><use transform="matrix(0.05,0,0,0.05,35.95,0)" xlink:href="#L"/><use transform="matrix(0.05,0,0,0.05,44.95,0)" xlink:href="#L"/></g><path d="M96-169c-40 0-48 33-48 73s9 75 48 75c24 0 41-14 43-38l32 2c-6 37-31 61-74 61-59 0-76-41-82-99-10-93 101-131 147-64 4 7 5 14 7 22l-32 3c-4-21-16-35-41-35" id="ab"/><path d="M84 4C-5 8 30-112 23-190h32v120c0 31 7 50 39 49 72-2 45-101 50-169h31l1 190h-30c-1-10 1-25-2-33-11 22-28 36-60 37" id="ac"/><path d="M179-190L93 31C79 59 56 82 12 73V49c39 6 53-20 64-50L1-190h34L92-34l54-156h33" id="ad"/><g id="i"><use transform="matrix(0.05,0,0,0.05,0,0)" xlink:href="#ab"/><use transform="matrix(0.05,0,0,0.05,9,0)" xlink:href="#aa"/><use transform="matrix(0.05,0,0,0.05,19,0)" xlink:href="#ac"/><use transform="matrix(0.05,0,0,0.05,29,0)" xlink:href="#R"/><use transform="matrix(0.05,0,0,0.05,39,0)" xlink:href="#U"/><use transform="matrix(0.05,0,0,0.05,44,0)" xlink:href="#N"/><use transform="matrix(0.05,0,0,0.05,49.95,0)" xlink:href="#ad"/></g><path d="M-5 72V49h209v23H-5" id="ae"/><g id="j"><use transform="matrix(0.05,0,0,0.05,0,0)" xlink:href="#Y"/><use transform="matrix(0.05,0,0,0.05,10,0)" xlink:href="#T"/><use transform="matrix(0.05,0,0,0.05,13.949999999999998,0)" xlink:href="#ab"/><use transform="matrix(0.05,0,0,0.05,22.95,0)" xlink:href="#U"/><use transform="matrix(0.05,0,0,0.05,27.950000000000003,0)" xlink:href="#ac"/><use transform="matrix(0.05,0,0,0.05,37.95,0)" xlink:href="#N"/><use transform="matrix(0.05,0,0,0.05,43.900000000000006,0)" xlink:href="#M"/><use transform="matrix(0.05,0,0,0.05,53.900000000000006,0)" xlink:href="#ae"/><use transform="matrix(0.05,0,0,0.05,63.900000000000006,0)" xlink:href="#S"/><use transform="matrix(0.05,0,0,0.05,68.9,0)" xlink:href="#T"/><use transform="matrix(0.05,0,0,0.05,72.85000000000001,0)" xlink:href="#X"/><use transform="matrix(0.05,0,0,0.05,76.80000000000001,0)" xlink:href="#M"/><use transform="matrix(0.05,0,0,0.05,86.80000000000001,0)" xlink:href="#ae"/><use transform="matrix(0.05,0,0,0.05,96.80000000000001,0)" xlink:href="#T"/><use transform="matrix(0.05,0,0,0.05,100.75000000000001,0)" xlink:href="#P"/></g><g id="k"><use transform="matrix(0.05,0,0,0.05,0,0)" xlink:href="#M"/><use transform="matrix(0.05,0,0,0.05,10,0)" xlink:href="#W"/><use transform="matrix(0.05,0,0,0.05,24.950000000000003,0)" xlink:href="#V"/><use transform="matrix(0.05,0,0,0.05,34.95,0)" xlink:href="#T"/><use transform="matrix(0.05,0,0,0.05,38.900000000000006,0)" xlink:href="#X"/></g><path d="M206 0h-36l-40-164L89 0H53L-1-190h32L70-26l43-164h34l41 164 42-164h31" id="af"/><g id="l"><use transform="matrix(0.05,0,0,0.05,0,0)" xlink:href="#Y"/><use transform="matrix(0.05,0,0,0.05,10,0)" xlink:href="#V"/><use transform="matrix(0.05,0,0,0.05,20,0)" xlink:href="#L"/><use transform="matrix(0.05,0,0,0.05,29,0)" xlink:href="#L"/><use transform="matrix(0.05,0,0,0.05,38,0)" xlink:href="#af"/><use transform="matrix(0.05,0,0,0.05,50.95,0)" xlink:href="#aa"/><use transform="matrix(0.05,0,0,0.05,60.95,0)" xlink:href="#N"/><use transform="matrix(0.05,0,0,0.05,66.9,0)" xlink:href="#P"/></g><g id="m"><use transform="matrix(0.05,0,0,0.05,0,0)" xlink:href="#S"/><use transform="matrix(0.05,0,0,0.05,5,0)" xlink:href="#T"/><use transform="matrix(0.05,0,0,0.05,8.95,0)" xlink:href="#P"/><use transform="matrix(0.05,0,0,0.05,18.95,0)" xlink:href="#M"/><use transform="matrix(0.05,0,0,0.05,28.950000000000003,0)" xlink:href="#X"/><use transform="matrix(0.05,0,0,0.05,32.9,0)" xlink:href="#T"/><use transform="matrix(0.05,0,0,0.05,36.85,0)" xlink:href="#U"/><use transform="matrix(0.05,0,0,0.05,41.85,0)" xlink:href="#ad"/><use transform="matrix(0.05,0,0,0.05,50.85,0)" xlink:href="#ae"/><use transform="matrix(0.05,0,0,0.05,60.85,0)" xlink:href="#ab"/><use transform="matrix(0.05,0,0,0.05,69.85,0)" xlink:href="#V"/><use transform="matrix(0.05,0,0,0.05,79.85,0)" xlink:href="#N"/><use transform="matrix(0.05,0,0,0.05,85.8,0)" xlink:href="#P"/></g><path d="M30-248c87 1 191-15 191 75 0 78-77 80-158 76V0H30v-248zm33 125c57 0 124 11 124-50 0-59-68-47-124-48v98" id="ag"/><path d="M63-220v92h138v28H63V0H30v-248h175v28H63" id="ah"/><g id="n"><use transform="matrix(0.05,0,0,0.05,0,0)" xlink:href="#ag"/><use transform="matrix(0.05,0,0,0.05,12,0)" xlink:href="#T"/><use transform="matrix(0.05,0,0,0.05,15.949999999999998,0)" xlink:href="#ab"/><use transform="matrix(0.05,0,0,0.05,24.95,0)" xlink:href="#U"/><use transform="matrix(0.05,0,0,0.05,29.950000000000003,0)" xlink:href="#ac"/><use transform="matrix(0.05,0,0,0.05,39.95,0)" xlink:href="#N"/><use transform="matrix(0.05,0,0,0.05,45.900000000000006,0)" xlink:href="#M"/><use transform="matrix(0.05,0,0,0.05,55.900000000000006,0)" xlink:href="#ae"/><use transform="matrix(0.05,0,0,0.05,65.9,0)" xlink:href="#ah"/><use transform="matrix(0.05,0,0,0.05,76.85000000000001,0)" xlink:href="#T"/><use transform="matrix(0.05,0,0,0.05,80.80000000000001,0)" xlink:href="#X"/><use transform="matrix(0.05,0,0,0.05,84.75000000000001,0)" xlink:href="#M"/></g><g id="o"><use transform="matrix(0.05,0,0,0.05,0,0)" xlink:href="#T"/><use transform="matrix(0.05,0,0,0.05,3.95,0)" xlink:href="#P"/></g><g id="p"><use transform="matrix(0.05,0,0,0.05,0,0)" xlink:href="#P"/><use transform="matrix(0.05,0,0,0.05,10,0)" xlink:href="#V"/><use transform="matrix(0.05,0,0,0.05,20,0)" xlink:href="#U"/><use transform="matrix(0.05,0,0,0.05,25,0)" xlink:href="#M"/><use transform="matrix(0.05,0,0,0.05,35,0)" xlink:href="#ae"/><use transform="matrix(0.05,0,0,0.05,45,0)" xlink:href="#ab"/><use transform="matrix(0.05,0,0,0.05,54,0)" xlink:href="#N"/><use transform="matrix(0.05,0,0,0.05,59.95,0)" xlink:href="#M"/><use transform="matrix(0.05,0,0,0.05,69.95,0)" xlink:href="#V"/><use transform="matrix(0.05,0,0,0.05,79.95,0)" xlink:href="#U"/><use transform="matrix(0.05,0,0,0.05,84.95,0)" xlink:href="#M"/><use transform="matrix(0.05,0,0,0.05,94.95,0)" xlink:href="#P"/></g><g id="q"><use transform="matrix(0.05,0,0,0.05,0,0)" xlink:href="#P"/><use transform="matrix(0.05,0,0,0.05,10,0)" xlink:href="#V"/><use transform="matrix(0.05,0,0,0.05,20,0)" xlink:href="#U"/><use transform="matrix(0.05,0,0,0.05,25,0)" xlink:href="#M"/><use transform="matrix(0.05,0,0,0.05,35,0)" xlink:href="#ae"/><use transform="matrix(0.05,0,0,0.05,45,0)" xlink:href="#ac"/><use transform="matrix(0.05,0,0,0.05,55,0)" xlink:href="#Y"/><use transform="matrix(0.05,0,0,0.05,65,0)" xlink:href="#X"/><use transform="matrix(0.05,0,0,0.05,68.95,0)" xlink:href="#aa"/><use transform="matrix(0.05,0,0,0.05,78.95,0)" xlink:href="#V"/><use transform="matrix(0.05,0,0,0.05,88.95,0)" xlink:href="#P"/></g><g id="r"><use transform="matrix(0.05,0,0,0.05,0,0)" xlink:href="#P"/><use transform="matrix(0.05,0,0,0.05,10,0)" xlink:href="#V"/><use transform="matrix(0.05,0,0,0.05,20,0)" xlink:href="#U"/><use transform="matrix(0.05,0,0,0.05,25,0)" xlink:href="#M"/><use transform="matrix(0.05,0,0,0.05,35,0)" xlink:href="#ae"/><use transform="matrix(0.05,0,0,0.05,45,0)" xlink:href="#P"/><use transform="matrix(0.05,0,0,0.05,55,0)" xlink:href="#M"/><use transform="matrix(0.05,0,0,0.05,65,0)" xlink:href="#X"/><use transform="matrix(0.05,0,0,0.05,68.95,0)" xlink:href="#M"/><use transform="matrix(0.05,0,0,0.05,78.95,0)" xlink:href="#U"/><use transform="matrix(0.05,0,0,0.05,83.95,0)" xlink:href="#M"/></g><g id="s"><use transform="matrix(0.05,0,0,0.05,0,0)" xlink:href="#ah"/><use transform="matrix(0.05,0,0,0.05,10.950000000000001,0)" xlink:href="#T"/><use transform="matrix(0.05,0,0,0.05,14.9,0)" xlink:href="#X"/><use transform="matrix(0.05,0,0,0.05,18.85,0)" xlink:href="#M"/><use transform="matrix(0.05,0,0,0.05,28.85,0)" xlink:href="#L"/></g><path d="M205 0l-28-72H64L36 0H1l101-248h38L239 0h-34zm-38-99l-47-123c-12 45-31 82-46 123h93" id="ai"/><g id="t"><use transform="matrix(0.05,0,0,0.05,0,0)" xlink:href="#ai"/><use transform="matrix(0.05,0,0,0.05,12,0)" xlink:href="#Y"/><use transform="matrix(0.05,0,0,0.05,22,0)" xlink:href="#Y"/><use transform="matrix(0.05,0,0,0.05,32,0)" xlink:href="#aa"/><use transform="matrix(0.05,0,0,0.05,42,0)" xlink:href="#T"/><use transform="matrix(0.05,0,0,0.05,45.95,0)" xlink:href="#R"/><use transform="matrix(0.05,0,0,0.05,55.95,0)" xlink:href="#U"/><use transform="matrix(0.05,0,0,0.05,60.95,0)" xlink:href="#W"/><use transform="matrix(0.05,0,0,0.05,75.9,0)" xlink:href="#M"/><use transform="matrix(0.05,0,0,0.05,85.9,0)" xlink:href="#R"/><use transform="matrix(0.05,0,0,0.05,95.9,0)" xlink:href="#U"/></g><g id="u"><use transform="matrix(0.05,0,0,0.05,0,0)" xlink:href="#P"/><use transform="matrix(0.05,0,0,0.05,10,0)" xlink:href="#V"/><use transform="matrix(0.05,0,0,0.05,20,0)" xlink:href="#U"/><use transform="matrix(0.05,0,0,0.05,25,0)" xlink:href="#M"/></g><g id="v"><use transform="matrix(0.05,0,0,0.05,0,0)" xlink:href="#U"/><use transform="matrix(0.05,0,0,0.05,5,0)" xlink:href="#T"/><use transform="matrix(0.05,0,0,0.05,8.95,0)" xlink:href="#W"/><use transform="matrix(0.05,0,0,0.05,23.9,0)" xlink:href="#M"/><use transform="matrix(0.05,0,0,0.05,33.9,0)" xlink:href="#ae"/><use transform="matrix(0.05,0,0,0.05,43.9,0)" xlink:href="#Z"/><use transform="matrix(0.05,0,0,0.05,53.900000000000006,0)" xlink:href="#aa"/><use transform="matrix(0.05,0,0,0.05,63.900000000000006,0)" xlink:href="#ac"/><use transform="matrix(0.05,0,0,0.05,73.9,0)" xlink:href="#N"/></g><path d="M143 0L79-87 56-68V0H24v-261h32v163l83-92h37l-77 82L181 0h-38" id="aj"/><g id="w"><use transform="matrix(0.05,0,0,0.05,0,0)" xlink:href="#Y"/><use transform="matrix(0.05,0,0,0.05,10,0)" xlink:href="#V"/><use transform="matrix(0.05,0,0,0.05,20,0)" xlink:href="#ab"/><use transform="matrix(0.05,0,0,0.05,29,0)" xlink:href="#aj"/><use transform="matrix(0.05,0,0,0.05,38,0)" xlink:href="#V"/><use transform="matrix(0.05,0,0,0.05,48,0)" xlink:href="#Q"/><use transform="matrix(0.05,0,0,0.05,58,0)" xlink:href="#M"/><use transform="matrix(0.05,0,0,0.05,68,0)" xlink:href="#ae"/><use transform="matrix(0.05,0,0,0.05,78,0)" xlink:href="#T"/><use transform="matrix(0.05,0,0,0.05,81.95,0)" xlink:href="#P"/></g><g id="x"><use transform="matrix(0.05,0,0,0.05,0,0)" xlink:href="#L"/><use transform="matrix(0.05,0,0,0.05,9,0)" xlink:href="#U"/><use transform="matrix(0.05,0,0,0.05,14,0)" xlink:href="#V"/><use transform="matrix(0.05,0,0,0.05,24,0)" xlink:href="#S"/><use transform="matrix(0.05,0,0,0.05,28.649999999999995,0)" xlink:href="#S"/><use transform="matrix(0.05,0,0,0.05,33.65,0)" xlink:href="#ae"/><use transform="matrix(0.05,0,0,0.05,43.65,0)" xlink:href="#T"/><use transform="matrix(0.05,0,0,0.05,47.6,0)" xlink:href="#P"/></g><g id="y"><use transform="matrix(0.05,0,0,0.05,0,0)" xlink:href="#ac"/><use transform="matrix(0.05,0,0,0.05,10,0)" xlink:href="#L"/><use transform="matrix(0.05,0,0,0.05,19,0)" xlink:href="#M"/><use transform="matrix(0.05,0,0,0.05,29,0)" xlink:href="#N"/><use transform="matrix(0.05,0,0,0.05,34.95,0)" xlink:href="#ae"/><use transform="matrix(0.05,0,0,0.05,44.95,0)" xlink:href="#T"/><use transform="matrix(0.05,0,0,0.05,48.900000000000006,0)" xlink:href="#P"/></g><path d="M185-189c-5-48-123-54-124 2 14 75 158 14 163 119 3 78-121 87-175 55-17-10-28-26-33-46l33-7c5 56 141 63 141-1 0-78-155-14-162-118-5-82 145-84 179-34 5 7 8 16 11 25" id="ak"/><g id="z"><use transform="matrix(0.05,0,0,0.05,0,0)" xlink:href="#ak"/><use transform="matrix(0.05,0,0,0.05,12,0)" xlink:href="#U"/><use transform="matrix(0.05,0,0,0.05,17,0)" xlink:href="#V"/><use transform="matrix(0.05,0,0,0.05,27,0)" xlink:href="#S"/><use transform="matrix(0.05,0,0,0.05,31.649999999999995,0)" xlink:href="#S"/></g><g id="A"><use transform="matrix(0.05,0,0,0.05,0,0)" xlink:href="#P"/><use transform="matrix(0.05,0,0,0.05,10,0)" xlink:href="#M"/><use transform="matrix(0.05,0,0,0.05,20,0)" xlink:href="#L"/><use transform="matrix(0.05,0,0,0.05,29,0)" xlink:href="#ab"/><use transform="matrix(0.05,0,0,0.05,38,0)" xlink:href="#N"/><use transform="matrix(0.05,0,0,0.05,43.95,0)" xlink:href="#T"/><use transform="matrix(0.05,0,0,0.05,47.900000000000006,0)" xlink:href="#Y"/><use transform="matrix(0.05,0,0,0.05,57.900000000000006,0)" xlink:href="#U"/><use transform="matrix(0.05,0,0,0.05,62.900000000000006,0)" xlink:href="#T"/><use transform="matrix(0.05,0,0,0.05,66.85000000000001,0)" xlink:href="#aa"/><use transform="matrix(0.05,0,0,0.05,76.85000000000001,0)" xlink:href="#R"/></g><g id="B"><use transform="matrix(0.05,0,0,0.05,0,0)" xlink:href="#ag"/><use transform="matrix(0.05,0,0,0.05,12,0)" xlink:href="#V"/><use transform="matrix(0.05,0,0,0.05,22,0)" xlink:href="#ab"/><use transform="matrix(0.05,0,0,0.05,31,0)" xlink:href="#aj"/><use transform="matrix(0.05,0,0,0.05,40,0)" xlink:href="#V"/><use transform="matrix(0.05,0,0,0.05,50,0)" xlink:href="#Q"/><use transform="matrix(0.05,0,0,0.05,60,0)" xlink:href="#M"/></g><g id="C"><use transform="matrix(0.05,0,0,0.05,0,0)" xlink:href="#Y"/><use transform="matrix(0.05,0,0,0.05,10,0)" xlink:href="#N"/><use transform="matrix(0.05,0,0,0.05,15.949999999999998,0)" xlink:href="#T"/><use transform="matrix(0.05,0,0,0.05,19.9,0)" xlink:href="#ab"/><use transform="matrix(0.05,0,0,0.05,28.899999999999995,0)" xlink:href="#M"/></g><g id="D"><use transform="matrix(0.05,0,0,0.05,0,0)" xlink:href="#R"/><use transform="matrix(0.05,0,0,0.05,10,0)" xlink:href="#V"/><use transform="matrix(0.05,0,0,0.05,20,0)" xlink:href="#W"/><use transform="matrix(0.05,0,0,0.05,34.95,0)" xlink:href="#M"/></g><g id="E"><use transform="matrix(0.05,0,0,0.05,0,0)" xlink:href="#U"/><use transform="matrix(0.05,0,0,0.05,5,0)" xlink:href="#T"/><use transform="matrix(0.05,0,0,0.05,8.95,0)" xlink:href="#W"/><use transform="matrix(0.05,0,0,0.05,23.9,0)" xlink:href="#M"/></g><g id="F"><use transform="matrix(0.05,0,0,0.05,0,0)" xlink:href="#S"/><use transform="matrix(0.05,0,0,0.05,5,0)" xlink:href="#aa"/><use transform="matrix(0.05,0,0,0.05,15,0)" xlink:href="#N"/><use transform="matrix(0.05,0,0,0.05,20.95,0)" xlink:href="#ae"/><use transform="matrix(0.05,0,0,0.05,30.950000000000003,0)" xlink:href="#Q"/><use transform="matrix(0.05,0,0,0.05,40.95,0)" xlink:href="#M"/><use transform="matrix(0.05,0,0,0.05,50.95,0)" xlink:href="#R"/><use transform="matrix(0.05,0,0,0.05,60.95,0)" xlink:href="#P"/><use transform="matrix(0.05,0,0,0.05,70.95,0)" xlink:href="#M"/><use transform="matrix(0.05,0,0,0.05,80.95,0)" xlink:href="#N"/></g><g id="G"><use transform="matrix(0.05,0,0,0.05,0,0)" xlink:href="#ak"/><use transform="matrix(0.05,0,0,0.05,12,0)" xlink:href="#Z"/><use transform="matrix(0.05,0,0,0.05,22,0)" xlink:href="#aa"/><use transform="matrix(0.05,0,0,0.05,32,0)" xlink:href="#af"/><use transform="matrix(0.05,0,0,0.05,44.95,0)" xlink:href="#ab"/><use transform="matrix(0.05,0,0,0.05,53.95,0)" xlink:href="#V"/><use transform="matrix(0.05,0,0,0.05,63.95,0)" xlink:href="#L"/><use transform="matrix(0.05,0,0,0.05,72.95,0)" xlink:href="#M"/></g><g id="H"><use transform="matrix(0.05,0,0,0.05,0,0)" xlink:href="#Y"/><use transform="matrix(0.05,0,0,0.05,10,0)" xlink:href="#N"/><use transform="matrix(0.05,0,0,0.05,15.949999999999998,0)" xlink:href="#aa"/><use transform="matrix(0.05,0,0,0.05,25.950000000000003,0)" xlink:href="#P"/><use transform="matrix(0.05,0,0,0.05,35.95,0)" xlink:href="#ac"/><use transform="matrix(0.05,0,0,0.05,45.95,0)" xlink:href="#ab"/><use transform="matrix(0.05,0,0,0.05,54.95,0)" xlink:href="#U"/></g><g id="I"><use transform="matrix(0.05,0,0,0.05,0,0)" xlink:href="#Y"/><use transform="matrix(0.05,0,0,0.05,10,0)" xlink:href="#T"/><use transform="matrix(0.05,0,0,0.05,13.949999999999998,0)" xlink:href="#ab"/><use transform="matrix(0.05,0,0,0.05,22.95,0)" xlink:href="#U"/><use transform="matrix(0.05,0,0,0.05,27.950000000000003,0)" xlink:href="#ac"/><use transform="matrix(0.05,0,0,0.05,37.95,0)" xlink:href="#N"/><use transform="matrix(0.05,0,0,0.05,43.900000000000006,0)" xlink:href="#M"/><use transform="matrix(0.05,0,0,0.05,53.900000000000006,0)" xlink:href="#ae"/><use transform="matrix(0.05,0,0,0.05,63.900000000000006,0)" xlink:href="#S"/><use transform="matrix(0.05,0,0,0.05,68.9,0)" xlink:href="#T"/><use transform="matrix(0.05,0,0,0.05,72.85000000000001,0)" xlink:href="#X"/><use transform="matrix(0.05,0,0,0.05,76.80000000000001,0)" xlink:href="#M"/></g><g id="J"><use transform="matrix(0.05,0,0,0.05,0,0)" xlink:href="#ae"/><use transform="matrix(0.05,0,0,0.05,10,0)" xlink:href="#T"/><use transform="matrix(0.05,0,0,0.05,13.949999999999998,0)" xlink:href="#P"/></g></defs></g></svg>